<?xml version="1.0" standalone="no"?><!DOCTYPE svg PUBLIC "-//W3C//DTD SVG 1.1//EN" "http://www.w3.org/Graphics/SVG/1.1/DTD/svg11.dtd"><svg t="1780721154729" class="icon" viewBox="0 0 1024 1024" version="1.1" xmlns="http://www.w3.org/2000/svg" p-id="1716" data-spm-anchor-id="a313x.search_index.0.i1.68713a81azYFcR" xmlns:xlink="http://www.w3.org/1999/xlink" width="200" height="200"><path d="M800.29 799.63h64.02v63.97h-64.02v-63.97z m-128.05 0h64.03v63.97h-64.03v-63.97z m-128.05 0h64.02v63.97h-64.02v-63.97z m-128.04 0h64.02v63.97h-64.02v-63.97z m-256.1 0h64.02v63.97h-64.02v-63.97z m0-639.76h64.02v63.97h-64.02v-63.97zM288.1 799.63h64.02v63.97H288.1v-63.97zM160.05 671.67h64.02v63.98h-64.02v-63.98z m0-127.95h64.02v63.97h-64.02v-63.97z m0-127.95h64.02v63.97h-64.02v-63.97z m0-127.96h64.02v63.97h-64.02v-63.97z m640.24 383.86h64.02v63.98h-64.02v-63.98z m0-127.95h64.02v63.97h-64.02v-63.97z m0-127.95h64.02v63.97h-64.02v-63.97z m0-127.96h64.02v63.97h-64.02v-63.97z m0-127.94h64.02v63.97h-64.02v-63.97z m-128.05 0h64.03v63.97h-64.03v-63.97z m-128.05 0h64.02v63.97h-64.02v-63.97z m-128.04 0h64.02v63.97h-64.02v-63.97z m-128.05 0h64.02v63.97H288.1v-63.97z" fill="#d4237a" p-id="1717"></path><path d="M896.33 63.9h-768.3c-35.21 0-64.02 28.79-64.02 63.97v767.71c0 35.19 28.81 63.97 64.02 63.97h768.3c35.21 0 64.02-28.79 64.02-63.97V127.87c0-35.19-28.8-63.97-64.02-63.97z m0 799.7c0 19.19-12.81 31.99-32.01 31.99H160.05c-19.2 0-32.01-12.8-32.01-31.99V159.87c0-19.19 12.81-31.99 32.01-31.99h704.27c19.2 0 32.01 12.8 32.01 31.99V863.6z" fill="#d4237a" p-id="1718"></path></svg>